<svg width="200" height="144" viewBox="0 0 200 144" fill="none" xmlns="http://www.w3.org/2000/svg">
<path fill-rule="evenodd" clip-rule="evenodd" d="M2.24452 1.557C0.46252 2.804 0.0215197 4.084 0.0215197 8C0.0215197 16.408 -2.73248 16 54.0695 16H103.673L105.848 13.686C108.827 10.514 108.761 5.043 105.708 2.174C103.396 0.00199986 103.339 0 53.9295 0C10.7805 0 4.18252 0.198999 2.24452 1.557ZM156.422 4.425C154.716 5.169 153.029 6.539 152.672 7.471C152.314 8.402 152.022 31.937 152.022 59.772V110.38L141.667 100.19C132.9 91.563 130.823 90 128.122 90C123.613 90 120.022 93.817 120.022 98.609C120.022 102.08 121.251 103.545 139.996 122.404L159.97 142.5L178.563 124C188.79 113.825 197.801 104.285 198.589 102.8C201.215 97.851 200.047 93.671 195.338 91.163C190.842 88.769 188.972 89.764 178.377 100.19L168.022 110.38V59.378C168.022 9.435 167.98 8.332 165.983 6.189C164.862 4.985 163.548 4 163.065 4C162.581 4 161.586 3.791 160.854 3.536C160.121 3.282 158.127 3.681 156.422 4.425ZM2.24452 33.557C0.46252 34.804 0.0215197 36.084 0.0215197 40C0.0215197 48.217 -1.06648 48 40.0695 48H75.6725L77.8475 45.686C80.8265 42.514 80.7605 37.043 77.7075 34.174C75.4205 32.026 74.9635 32 39.9295 32C9.45152 32 4.15452 32.219 2.24452 33.557ZM2.24452 65.557C0.46252 66.804 0.0215197 68.084 0.0215197 72C0.0215197 80.038 -0.131481 80 32.0695 80C59.6295 80 59.6765 79.996 61.8475 77.686C64.8265 74.514 64.7605 69.043 61.7075 66.174C59.4465 64.051 58.7505 64 31.9295 64C8.69152 64 4.12452 64.24 2.24452 65.557ZM2.24452 97.557C0.46252 98.804 0.0215197 100.084 0.0215197 104C0.0215197 111.748 0.780519 112 24.0695 112C43.2675 112 43.7175 111.952 45.8475 109.686C48.8265 106.514 48.7605 101.043 45.7075 98.174C43.4945 96.096 42.5365 96 23.9295 96C7.93252 96 4.07052 96.277 2.24452 97.557ZM2.24452 129.557C0.46252 130.804 0.0215197 132.084 0.0215197 136C0.0215197 143.194 1.63852 144 16.0695 144C26.9055 144 27.8165 143.847 29.8475 141.686C32.8265 138.514 32.7605 133.043 29.7075 130.174C27.6085 128.203 26.3225 128 15.9295 128C7.17352 128 3.94152 128.368 2.24452 129.557Z" fill="black"/>
</svg>
