<svg width="662" height="616" viewBox="0 0 662 616" fill="none" xmlns="http://www.w3.org/2000/svg">
<path fill-rule="evenodd" clip-rule="evenodd" d="M493.487 1.05044C493.818 1.58544 495.982 2.56144 498.296 3.21844C500.61 3.87544 504.079 5.55743 506.004 6.95643C512.455 11.6454 652.85 152.877 656.412 158.262C659.206 162.485 660.105 165.07 660.787 170.836C662.609 186.259 659.462 195.76 649.175 205.893C643.909 211.079 640.821 212.392 635.858 211.553C632.521 210.99 622.614 201.413 542.962 121.75C493.924 72.7054 452.698 30.6974 451.349 28.3974L448.895 24.2174L451.2 19.7774C453.796 14.7744 461.56 7.65044 466.931 5.34144C468.896 4.49644 472.14 2.96643 474.14 1.94243C478.112 -0.0935657 492.374 -0.750564 493.487 1.05044ZM145.004 17.0834C148.579 18.1084 153.59 19.2364 156.14 19.5904C158.689 19.9444 162.928 21.3244 165.559 22.6564C168.19 23.9884 170.904 25.0784 171.59 25.0784C173.026 25.0784 184.554 31.0694 189.445 34.3564C200.977 42.1094 205.396 45.7834 212.702 53.6984C224.462 66.4374 225.004 67.0654 225.004 67.9354C225.004 68.3684 226.341 70.4894 227.976 72.6504C229.611 74.8104 230.961 77.0534 230.976 77.6344C230.991 78.2144 232.105 80.1824 233.452 82.0074C234.798 83.8324 236.207 86.7254 236.583 88.4374C236.959 90.1484 237.893 92.5044 238.658 93.6734C239.423 94.8414 240.687 98.6724 241.466 102.187C242.245 105.702 243.639 110.828 244.563 113.578C245.904 117.567 246.256 122.623 246.307 138.578C246.365 157.058 246.204 158.949 244.187 163.455C242.986 166.138 241.999 169.513 241.993 170.955C241.987 172.398 241.32 175.76 240.511 178.427C239.562 181.555 239.363 183.862 239.95 184.927C241.145 187.096 482.304 428.107 484.52 429.347C485.608 429.956 489.889 429.921 496.364 429.25C504.233 428.435 508.071 428.498 513.504 429.53C529.032 432.481 544.84 437.781 549.169 441.488C550.191 442.362 551.318 443.078 551.675 443.078C552.031 443.078 554.817 444.99 557.867 447.328C560.916 449.665 564.158 452.028 565.071 452.578C567.432 454 577.011 465.662 580.678 471.578C584.956 478.48 590.004 489.179 590.004 491.345C590.004 492.333 590.982 495.939 592.176 499.36C593.981 504.524 594.355 507.866 594.389 519.078C594.425 531.246 594.161 533.344 591.716 540.337C590.225 544.604 589.004 549.156 589.004 550.452C589.004 551.748 588.166 553.881 587.142 555.193C586.117 556.505 584.941 558.655 584.529 559.972C583.514 563.207 575.389 574.852 570.274 580.401C562.431 588.91 547.23 600.078 543.492 600.078C542.529 600.078 540.306 600.964 538.554 602.047C535.509 603.929 528.273 606.061 517.537 608.24C506.578 610.463 482.478 607.38 470.966 602.282C457.764 596.436 453.597 593.931 446.256 587.432C437.579 579.75 425.339 563.941 423.519 558.065C423.095 556.697 421.681 553.738 420.376 551.49C419.072 549.242 418.004 546.315 418.004 544.987C418.004 543.659 417.104 539.424 416.004 535.578C413.776 527.788 413.278 512.233 415.051 505.847C415.829 503.048 415.765 501.5 414.796 499.651C413.605 497.38 390.234 473.498 356.316 439.894C348.719 432.368 335.016 418.643 325.864 409.394C316.712 400.145 303.887 387.338 297.364 380.933C290.841 374.528 279.346 363.053 271.82 355.433C264.293 347.813 251.918 335.42 244.32 327.894C236.721 320.368 217.271 300.944 201.097 284.729C184.924 268.515 170.612 254.671 169.292 253.965C167.334 252.917 166.308 252.922 163.699 253.996C161.942 254.72 158.029 255.736 155.004 256.254C151.979 256.773 147.254 257.958 144.504 258.888C140.719 260.167 135.98 260.578 125.004 260.578C111.373 260.578 105.187 259.796 90.004 256.154C84.246 254.773 73.6759 250.689 71.0309 248.823C69.6719 247.863 67.9299 247.078 67.1609 247.078C65.4489 247.078 58.309 242.71 52.858 238.328C50.634 236.541 48.394 235.078 47.879 235.078C46.348 235.078 25.004 213.32 25.004 211.759C25.004 210.969 24.279 209.721 23.392 208.985C21.116 207.096 14.004 195.961 14.004 194.287C14.004 193.521 13.104 191.749 12.004 190.351C10.904 188.952 10.004 187.138 10.004 186.318C10.004 185.499 8.92496 182.297 7.60596 179.203C4.55296 172.041 -0.00606104 147.711 -6.10352e-05 138.612C0.00493896 130.352 3.61297 112.298 5.74597 109.865C7.06197 108.363 7.56994 108.32 9.87494 109.514C11.3209 110.262 27.579 126.029 46.004 144.55C64.429 163.071 81.979 179.866 85.004 181.872C90.064 185.228 91.1879 185.549 99.0519 185.891C107.366 186.252 107.777 186.161 114.052 182.584C125.093 176.291 127.459 174.734 134.078 169.401C148.193 158.03 158.119 146.001 168.451 127.744C171.004 123.234 171.163 122.265 170.836 113.244C170.515 104.39 170.235 103.227 167.495 99.4024C165.85 97.1054 148.881 79.6184 129.786 60.5404C110.691 41.4634 94.804 25.0224 94.481 24.0044C93.471 20.8244 95.619 18.6084 101.454 16.8114C109.606 14.3014 135.868 14.4654 145.004 17.0834ZM436.912 43.7274C438.873 44.5824 452.108 56.9654 468.088 72.8954C483.36 88.1214 522.544 127.128 555.162 159.578C587.781 192.028 615.714 220.102 617.236 221.966C619.328 224.526 620.004 226.428 620.004 229.758C620.004 233.63 619.429 234.783 615.254 239.273C608.2 246.861 603.36 250.078 598.995 250.078C595.952 250.078 594.375 249.226 590.199 245.328C572.329 228.644 413.72 69.4624 412.951 67.4394C410.818 61.8294 411.749 58.2674 416.754 52.8834C422.791 46.3894 428.712 42.0554 431.404 42.1604C432.559 42.2044 435.038 42.9104 436.912 43.7274ZM402.535 83.9054C410.724 90.5504 578.444 258.281 580.814 262.196C583.532 266.686 583.554 268.664 580.936 272.958C579.803 274.816 561.9 293.266 541.151 313.958C497.978 357.012 497.891 357.078 484.12 357.078C473.077 357.078 469.939 355.187 451.343 337.326C432.373 319.105 431.728 318.609 425.205 317.212C414.358 314.891 406.092 316.488 399.662 322.148C397.206 324.309 394.395 326.078 393.415 326.078C391.153 326.078 337.024 272.169 337.013 269.905C337.008 268.984 338.044 266.959 339.315 265.405C345.216 258.188 347.004 253.586 347.004 245.617C347.004 234.878 344.904 231.379 328.448 214.694C320.916 207.057 313.01 198.32 310.879 195.278L307.004 189.746V179.284C307.004 169.514 307.2 168.482 309.961 163.7C311.862 160.407 326.677 144.71 351.458 119.733C395.781 75.0614 393.557 76.6214 402.535 83.9054ZM419.504 204.326C412.934 208.603 409.159 213.197 407.017 219.522C404.494 226.972 404.497 229.614 407.039 237.369C409.368 244.474 412.893 248.797 419.847 253.076C424.114 255.702 425.718 256.091 432.812 256.226C440.377 256.37 441.275 256.158 446.493 252.996C454.029 248.428 456.339 245.745 459.402 238C462.546 230.05 462.601 228.208 459.92 220.58C457.577 213.914 453.393 208.547 448.222 205.578C446.307 204.478 443.787 202.995 442.622 202.282C441.179 201.399 437.793 201.103 432.004 201.354C424.915 201.661 422.84 202.155 419.504 204.326ZM256.504 353.059C257.604 353.529 270.179 365.629 284.449 379.948L310.393 405.982L308.949 408.703C308.154 410.199 303.671 415.733 298.987 421.001C294.303 426.268 289.185 432.153 287.613 434.078C286.041 436.003 282.367 440.278 279.449 443.578C273.401 450.416 271.98 452.224 259.277 469.227C246.874 485.828 246.835 485.887 244.259 491.427C241.523 497.311 241.088 508.073 243.504 510.078C244.329 510.763 245.005 512.055 245.007 512.95C245.009 513.846 246.793 517.26 248.973 520.538C254.166 528.349 255.378 531.452 254.54 534.791C253.749 537.943 220.972 571.078 218.645 571.078C215.605 571.078 194.004 550.514 194.004 547.62C194.004 546.882 195.54 543.997 197.417 541.207C199.294 538.418 201.378 534.435 202.047 532.357C202.717 530.279 203.736 527.985 204.312 527.261C204.889 526.537 205.556 521.137 205.796 515.261C206.187 505.675 205.959 503.767 203.578 496.688C202.118 492.348 199.75 486.795 198.316 484.348C194.5 477.836 182.021 465.394 177.432 463.526C175.272 462.646 171.479 460.948 169.004 459.752C164.998 457.817 162.858 457.578 149.504 457.578H134.504L124.524 462.578C119.035 465.328 114.225 467.719 113.834 467.891C112.439 468.507 90.004 445.565 90.004 443.523C90.004 440.732 122.579 408.474 126.354 407.526C129.969 406.619 136.858 408.661 139.672 411.474C144.41 416.21 150.113 418.078 159.834 418.078C168.073 418.078 169.545 417.775 175.224 414.913C182.154 411.419 182.793 410.979 195.004 401.271C199.679 397.554 204.506 393.818 205.731 392.968C206.956 392.117 210.331 389.355 213.231 386.83C216.131 384.304 221.789 379.517 225.805 376.191C233.789 369.578 237.258 366.505 246.53 357.828C252.948 351.822 253.259 351.673 256.504 353.059ZM94.312 464.929C100.192 470.896 105.004 476.421 105.004 477.206C105.004 477.991 104.216 479.739 103.254 481.09C95.665 491.747 92.726 506.163 94.797 522.563C96.375 535.053 100.049 542.148 110.082 552.078C117.576 559.496 120.683 561.499 132.642 566.621C138.337 569.061 139.636 569.225 150.642 568.9C160.371 568.612 163.348 568.147 167.199 566.313C169.781 565.084 172.559 564.078 173.372 564.078C174.185 564.078 176.188 562.953 177.822 561.578C179.785 559.926 182.012 559.078 184.386 559.078C187.605 559.078 189.078 560.161 198.492 569.451C204.851 575.726 209.004 580.61 209.004 581.815C209.004 583.048 203.126 589.721 193.591 599.315C180.908 612.076 177.532 614.944 174.529 615.507C170.984 616.172 164.004 614.655 164.004 613.22C164.004 612.541 157.551 607.736 149.71 602.575C147.623 601.202 145.13 600.078 144.171 600.078C143.212 600.078 140.734 599.215 138.664 598.16C136.595 597.105 131.662 595.716 127.703 595.073C123.743 594.431 118.929 593.116 117.004 592.151C115.079 591.187 112.221 590.081 110.654 589.694C105.665 588.461 93.278 578.97 86.67 571.317C78.028 561.309 70.677 547.966 69.459 540.078C69.077 537.603 67.918 533.908 66.884 531.868C65.85 529.827 65.004 526.541 65.004 524.565C65.004 522.38 64.024 519.53 62.504 517.293C61.129 515.269 60.004 513.219 60.004 512.736C60.004 511.393 53.775 502.078 52.878 502.078C51.617 502.078 47.004 493.611 47.004 491.297C47.004 487.254 51.4609 481.477 65.1119 467.828C75.0689 457.871 79.519 454.078 81.241 454.078C82.942 454.078 86.664 457.167 94.312 464.929ZM488.209 482.328C480.362 486.253 469.46 496.724 468.455 501.302C468.079 503.012 466.926 505.799 465.892 507.495C462.85 512.482 463.253 525.191 466.707 533.262C470.851 542.942 479.039 552.488 484.89 554.458C486.328 554.943 488.231 555.971 489.12 556.743C491.515 558.822 502.587 560.343 510.001 559.612C513.574 559.26 518.504 557.983 520.956 556.775C527.726 553.439 537.219 544.028 541.033 536.871C544.304 530.736 544.372 530.352 544.26 518.888C544.154 508.086 543.933 506.801 541.419 502.376C536.88 494.387 528.331 486.26 520.504 482.494C514.104 479.414 512.699 479.124 504.105 479.102C495.477 479.08 494.174 479.344 488.209 482.328Z" fill="url(#paint0_linear_181_3)"/>
<defs>
<linearGradient id="paint0_linear_181_3" x1="298" y1="-418" x2="307.5" y2="754.5" gradientUnits="userSpaceOnUse">
<stop/>
<stop offset="1" stop-color="white"/>
</linearGradient>
</defs>
</svg>
