<svg width="328" height="378" viewBox="0 0 328 378" fill="none" xmlns="http://www.w3.org/2000/svg">
<path fill-rule="evenodd" clip-rule="evenodd" d="M160.214 1.487C158.287 2.836 144.089 11.076 123.676 22.691C119.432 25.105 115.752 27.417 115.498 27.829C115.243 28.24 118.266 30.407 122.214 32.644C126.162 34.881 137.15 41.164 146.631 46.606L163.87 56.5L163.881 84.75C163.887 100.287 164.168 113 164.504 113C164.841 113 169.904 110.23 175.754 106.844C181.605 103.458 192.355 97.284 199.642 93.125L212.892 85.562V57.021C212.892 28.51 212.89 28.48 210.642 27.065C209.404 26.286 202.767 22.422 195.892 18.479C189.017 14.537 179.008 8.766 173.651 5.655C168.293 2.545 163.556 0 163.123 0C162.691 0 161.381 0.668999 160.214 1.487ZM32.892 75.191C24.367 80.162 13.479 86.494 8.696 89.261L0 94.293L17.196 104.252C26.654 109.729 37.634 116.076 41.596 118.355L48.801 122.5L49.392 180.009L67.005 169.755C76.692 164.115 87.604 157.801 91.255 155.725L97.892 151.949V94.467L92.142 91.028C78.415 82.817 49.064 65.97 48.673 66.076C48.518 66.118 41.417 70.22 32.892 75.191ZM254.625 79.398C242.104 86.677 231.401 93.091 230.842 93.65C230.154 94.338 234.432 97.343 244.109 102.966C270.763 118.455 277.391 122.409 277.903 123.127C278.183 123.521 278.407 136.253 278.4 151.422C278.393 166.656 278.781 179 279.267 179C279.752 179 289.203 173.743 300.27 167.317C311.337 160.892 322.081 154.704 324.146 153.567L327.9 151.5L327.392 94.541L316.392 88.122C297.7 77.216 277.998 65.996 277.688 66.081C277.525 66.126 267.147 72.118 254.625 79.398ZM158.392 135.352C156.192 136.632 146.765 142.087 137.444 147.475C128.122 152.863 119.202 158.057 117.621 159.019L114.746 160.767L120.569 164.238C123.772 166.147 134.83 172.571 145.142 178.513L163.892 189.318V217.659C163.892 233.246 164.102 246 164.358 246C164.615 246 170.127 242.902 176.608 239.115C183.089 235.329 193.904 229.012 200.642 225.077L212.892 217.924V161.088L205.642 156.844C182.442 143.261 164.264 133.009 163.392 133.016C162.842 133.02 160.592 134.072 158.392 135.352ZM42.892 201.881C40.417 203.452 29.955 209.583 19.642 215.504C9.33 221.425 0.892 226.554 0.892 226.902C0.892 227.25 5.055 229.912 10.142 232.818C15.23 235.723 25.917 241.851 33.892 246.436L48.392 254.773L48.657 283.386C48.803 299.124 49.253 311.998 49.657 311.996C50.061 311.994 55.567 308.952 61.892 305.236C68.217 301.52 78.9 295.334 85.631 291.49L97.87 284.5L97.881 255.872C97.889 234.156 97.59 227.005 96.642 226.251C95.955 225.704 89.542 221.888 82.392 217.772C75.242 213.656 65.008 207.748 59.651 204.644C54.293 201.54 49.343 199.005 48.651 199.012C47.958 199.018 45.367 200.309 42.892 201.881ZM260.392 208.626C251.592 213.813 241.13 219.885 237.142 222.119C233.154 224.353 229.892 226.507 229.892 226.905C229.892 227.304 231.354 228.378 233.142 229.292C234.93 230.206 238.417 232.135 240.892 233.579C243.367 235.022 250.567 239.226 256.892 242.922C263.217 246.617 270.466 250.828 273 252.279L277.609 254.918L278.145 262.209C278.439 266.219 278.578 279.063 278.453 290.75C278.328 302.438 278.488 311.991 278.809 311.98C279.13 311.969 290.192 305.718 303.392 298.09L327.392 284.22L327.922 227.164L322.157 223.919C314.807 219.781 294.359 207.943 285.832 202.889C282.224 200.75 278.624 199.044 277.832 199.097C277.04 199.151 269.192 203.438 260.392 208.626ZM156.892 268.414C144.124 275.925 130.889 283.611 123.676 287.703C119.432 290.111 115.744 292.431 115.479 292.859C115.215 293.287 118.012 295.31 121.695 297.356C125.378 299.401 132.067 303.195 136.559 305.787C141.05 308.379 149.038 312.967 154.309 315.982L163.892 321.465V349.732C163.892 365.28 164.23 377.986 164.642 377.969C165.054 377.952 170.342 375.041 176.392 371.499C182.442 367.957 193.128 361.783 200.139 357.78L212.885 350.5L212.892 293.205L198.142 284.701C190.029 280.024 179.037 273.678 173.714 270.599C168.391 267.519 163.666 265.04 163.214 265.089C162.762 265.139 159.917 266.635 156.892 268.414Z" fill="url(#paint0_linear_178_47)"/>
<defs>
<linearGradient id="paint0_linear_178_47" x1="460" y1="26" x2="121.5" y2="220.5" gradientUnits="userSpaceOnUse">
<stop stop-color="white"/>
<stop offset="1" stop-color="#8C8C8C"/>
</linearGradient>
</defs>
</svg>
