<?xml version="1.0" encoding="UTF-8" ?>
<!DOCTYPE svg PUBLIC "-//W3C//DTD SVG 1.1//EN" "http://www.w3.org/Graphics/SVG/1.1/DTD/svg11.dtd">
<svg width="576pt" height="433pt" viewBox="0 0 576 433" version="1.1" xmlns="http://www.w3.org/2000/svg">
<g id="#000000ff">
<path fill="#000000" opacity="1.00" d=" M 41.18 24.18 C 46.07 23.17 51.08 23.70 56.03 23.57 C 67.65 23.67 79.27 23.42 90.88 23.72 C 97.65 23.93 103.95 27.72 107.54 33.39 C 110.30 38.79 112.22 45.18 109.77 51.05 C 108.53 57.50 103.42 62.15 97.75 64.91 C 93.71 66.63 89.24 66.61 84.93 66.59 C 74.94 66.50 64.95 66.64 54.97 66.57 C 49.06 66.56 42.89 67.13 37.30 64.80 C 30.67 61.33 25.21 54.67 24.86 46.97 C 23.48 36.78 31.01 26.04 41.18 24.18 Z" />
<path fill="#000000" opacity="1.00" d=" M 442.74 39.73 C 451.00 32.46 465.21 32.92 472.61 41.22 C 476.42 44.68 477.85 50.02 478.17 54.99 C 478.36 144.37 477.91 233.77 478.38 323.15 C 493.31 308.82 507.61 293.81 522.48 279.39 C 526.74 274.82 531.48 269.80 537.99 268.86 C 545.62 267.27 553.80 270.20 558.80 276.15 C 562.50 281.31 565.11 287.75 563.46 294.17 C 561.45 302.77 553.95 308.11 548.24 314.23 C 517.90 344.69 487.43 375.00 457.11 405.47 C 436.45 385.29 416.32 364.52 395.70 344.29 C 384.26 332.75 372.76 321.26 361.28 309.75 C 358.39 307.00 355.61 304.10 353.25 300.89 C 349.56 294.52 349.27 286.23 352.75 279.72 C 355.47 275.28 359.34 271.23 364.37 269.51 C 369.67 267.93 375.56 268.03 380.67 270.23 C 386.40 273.29 390.44 278.54 395.09 282.93 C 408.56 296.18 421.80 309.66 435.29 322.90 C 435.67 233.59 435.30 144.27 435.50 54.97 C 435.46 49.09 438.67 43.75 442.74 39.73 Z" />
<path fill="#000000" opacity="1.00" d=" M 44.05 110.03 C 73.04 109.71 102.04 110.03 131.04 109.93 C 134.16 109.81 137.28 110.32 140.14 111.61 C 151.76 115.31 158.00 130.55 151.84 141.23 C 149.87 144.29 147.98 147.78 144.59 149.48 C 140.42 151.77 135.69 153.16 130.94 153.38 C 107.60 153.31 84.26 153.37 60.92 153.35 C 51.31 153.39 40.67 154.39 32.45 148.36 C 28.66 144.41 25.04 139.68 24.90 133.95 C 23.78 126.66 27.23 119.43 32.66 114.70 C 36.13 112.53 39.93 110.52 44.05 110.03 Z" />
<path fill="#000000" opacity="1.00" d=" M 41.17 197.27 C 43.42 196.82 45.73 196.68 48.03 196.66 C 91.01 196.79 134.00 196.66 176.98 196.81 C 189.14 196.80 199.20 209.10 197.08 221.01 C 196.15 231.38 186.37 239.85 175.99 239.48 C 135.67 239.69 95.34 239.44 55.02 239.58 C 48.63 239.47 41.81 240.29 35.93 237.20 C 31.58 234.59 28.08 230.57 26.05 225.92 C 24.09 219.94 24.10 212.90 27.60 207.48 C 30.44 202.43 35.42 198.38 41.17 197.27 Z" />
<path fill="#000000" opacity="1.00" d=" M 42.44 283.62 C 45.89 282.71 49.48 283.00 53.01 282.99 C 108.01 282.98 163.01 282.93 218.02 283.03 C 223.84 283.57 230.33 285.06 234.32 289.68 C 242.76 297.83 242.40 313.46 233.19 320.91 C 228.92 324.27 223.51 326.57 218.00 326.41 C 161.33 326.39 104.66 326.36 47.98 326.46 C 42.37 326.82 37.09 324.37 32.44 321.47 C 28.33 317.29 24.73 312.04 24.82 305.92 C 24.00 299.05 27.63 292.75 32.33 288.07 C 35.31 285.85 38.86 284.52 42.44 283.62 Z" />
<path fill="#000000" opacity="1.00" d=" M 39.56 370.75 C 44.59 369.29 49.86 369.83 55.02 369.77 C 132.68 369.81 210.35 369.79 288.01 369.87 C 293.44 369.89 299.24 369.39 304.25 371.91 C 309.66 374.87 314.34 379.86 315.59 386.04 C 316.71 391.09 316.30 396.59 313.98 401.26 C 310.24 408.11 302.92 412.83 295.00 412.70 C 214.02 412.81 133.04 412.67 52.06 412.76 C 46.78 412.88 41.25 412.89 36.38 410.55 C 31.72 408.47 28.72 404.05 26.33 399.73 C 21.26 388.56 27.91 374.30 39.56 370.75 Z" />
</g>
</svg>
