<svg width="436" height="415" viewBox="0 0 436 415" fill="none" xmlns="http://www.w3.org/2000/svg">
<path fill-rule="evenodd" clip-rule="evenodd" d="M57.7461 2.1181C57.2591 3.3701 44.2571 37.2451 28.8521 77.3951C13.4481 117.545 0.530075 151.182 0.146075 152.145C-0.499925 153.761 0.510075 153.895 13.3601 153.895H27.2731L32.6131 138.645C35.5501 130.258 38.8191 121.032 39.8791 118.145L41.8051 112.895H72.6611H103.517L105.481 118.145C106.562 121.032 109.856 130.253 112.803 138.635L118.161 153.876L132.411 153.885C140.249 153.891 146.655 153.557 146.649 153.145C146.642 152.733 133.399 118.195 117.219 76.3951L87.8021 0.395099L73.2171 0.118098C58.8481 -0.154902 58.6191 -0.124902 57.7461 2.1181ZM85.1731 59.4921C91.4901 77.5891 96.6591 92.5071 96.6601 92.6451C96.6601 92.7831 86.0861 92.8951 73.1611 92.8951C55.5571 92.8951 49.6611 92.5941 49.6611 91.6961C49.6611 90.5151 71.3991 28.1691 72.3651 26.5781C72.6381 26.1291 73.0471 25.9481 73.2751 26.1761C73.5021 26.4031 78.8571 41.3951 85.1731 59.4921ZM341.161 57.6131C338.106 58.3551 332.713 62.7631 330.58 66.2611C328.728 69.2981 328.668 72.9301 328.665 183.645C328.663 246.482 328.319 297.895 327.902 297.895C327.485 297.895 317.697 288.399 306.152 276.794C294.607 265.188 283.713 255.063 281.943 254.294C267.14 247.859 252.028 262.74 258.196 277.677C259.247 280.221 273.221 294.897 302.442 324.145C325.933 347.658 345.606 366.895 346.161 366.895C346.716 366.895 366.389 347.658 389.88 324.145C433.49 280.495 435.688 277.927 435.639 270.677C435.613 266.776 432.715 260.081 430.016 257.683C427.176 255.162 421.189 252.892 417.443 252.917C410.92 252.961 406.476 256.37 385.661 277.3L365.161 297.914L364.661 184.154C364.207 80.7611 364.01 70.1221 362.506 67.3951C358.187 59.5661 349.503 55.5861 341.161 57.6131ZM16.6611 271.384V282.873L58.3071 283.134L99.9541 283.395L54.7741 338.17L9.59408 392.945L9.87708 403.67L10.1611 414.395L73.4111 414.652L136.661 414.91V402.912V390.915L90.7181 390.655L44.7751 390.395L89.7181 335.201L134.661 280.008V269.951V259.895H75.6611H16.6611V271.384Z" fill="black"/>
</svg>
