<?xml version="1.0" encoding="UTF-8" ?>
<!DOCTYPE svg PUBLIC "-//W3C//DTD SVG 1.1//EN" "http://www.w3.org/Graphics/SVG/1.1/DTD/svg11.dtd">
<svg width="200pt" height="200pt" viewBox="0 0 200 200" version="1.1" xmlns="http://www.w3.org/2000/svg">
<g id="#000000ff">
<path fill="#000000" opacity="1.00" d=" M 14.26 6.40 C 31.64 6.43 49.02 6.33 66.39 6.45 C 66.32 9.37 66.56 12.30 66.28 15.22 C 65.42 16.97 64.04 18.38 62.82 19.88 C 51.41 33.77 40.11 47.76 28.68 61.63 C 27.98 62.55 27.38 63.55 26.76 64.53 C 40.25 64.55 53.75 64.52 67.24 64.54 C 67.26 67.98 67.25 71.42 67.24 74.87 C 48.54 74.86 29.83 74.87 11.13 74.87 C 11.13 71.62 11.12 68.38 11.12 65.14 C 24.44 49.01 37.81 32.91 51.09 16.75 C 38.81 16.71 26.53 16.74 14.25 16.73 C 14.25 13.29 14.25 9.84 14.26 6.40 Z" />
<path fill="#000000" opacity="1.00" d=" M 152.03 39.92 C 151.84 35.64 155.68 31.70 159.97 31.87 C 164.24 31.80 168.09 35.57 167.95 39.86 C 168.07 72.86 167.95 105.86 168.01 138.86 C 174.21 132.75 180.18 126.40 186.48 120.40 C 190.79 116.38 198.62 119.29 199.45 125.07 C 200.33 128.75 197.85 131.93 195.29 134.25 C 183.50 145.92 171.77 157.65 160.01 169.36 C 147.47 156.79 134.80 144.35 122.32 131.73 C 118.33 127.73 120.57 120.14 126.01 118.79 C 129.12 117.86 132.51 119.01 134.64 121.40 C 140.44 127.21 146.21 133.04 152.00 138.87 C 152.03 105.89 151.95 72.90 152.03 39.92 Z" />
<path fill="#000000" opacity="1.00" d=" M 6.51 190.13 C 15.26 167.28 23.99 144.43 32.78 121.59 C 37.00 121.60 41.22 121.61 45.45 121.58 C 54.35 144.40 63.15 167.27 71.99 190.12 C 67.70 190.14 63.41 190.14 59.12 190.12 C 56.99 184.09 54.76 178.10 52.69 172.05 C 43.53 171.95 34.38 172.00 25.22 172.02 C 23.14 178.06 20.98 184.08 18.89 190.12 C 14.76 190.14 10.63 190.14 6.51 190.13 M 38.65 134.17 C 35.16 143.69 31.91 153.31 28.51 162.87 C 35.50 162.87 42.50 162.87 49.49 162.87 C 46.14 153.30 42.90 143.68 39.47 134.14 C 39.27 134.15 38.86 134.16 38.65 134.17 Z" />
</g>
</svg>
