<?xml version="1.0" encoding="UTF-8" ?>
<!DOCTYPE svg PUBLIC "-//W3C//DTD SVG 1.1//EN" "http://www.w3.org/Graphics/SVG/1.1/DTD/svg11.dtd">
<svg width="662pt" height="377pt" viewBox="0 0 662 377" version="1.1" xmlns="http://www.w3.org/2000/svg">
<g id="#000000ff">
<path fill="#000000" opacity="1.00" d=" M 338.35 23.44 C 351.57 9.97 369.99 1.21 388.99 0.91 C 394.00 -0.21 399.03 1.21 404.08 1.19 C 420.12 2.57 435.07 10.41 446.91 21.08 C 462.36 35.30 471.53 55.95 471.93 76.94 C 472.09 132.89 471.83 188.85 472.04 244.81 C 479.78 238.32 486.29 230.47 493.80 223.71 C 499.22 219.09 507.97 219.05 513.37 223.71 C 520.14 229.06 520.98 240.50 514.60 246.48 C 499.48 261.72 484.22 276.83 469.08 292.06 C 466.18 295.21 462.43 298.08 457.95 298.10 C 452.58 298.69 447.30 296.18 443.90 292.08 C 428.68 276.81 413.32 261.67 398.24 246.27 C 394.39 242.44 393.29 236.60 394.58 231.44 C 396.40 224.01 404.50 219.15 411.95 220.44 C 418.73 221.26 422.65 227.51 427.36 231.72 C 432.03 235.94 435.86 241.16 441.07 244.73 C 441.22 189.47 441.11 134.20 441.12 78.94 C 441.37 61.42 430.99 44.41 415.41 36.44 C 404.17 30.48 390.45 29.61 378.42 33.65 C 364.48 38.55 352.86 50.17 348.65 64.42 C 346.57 71.05 346.28 78.08 346.36 84.98 C 346.38 155.96 346.53 226.95 346.31 297.94 C 346.60 315.23 340.83 332.51 330.26 346.20 C 318.72 361.24 301.57 371.96 282.88 375.35 C 278.42 376.27 273.74 375.58 269.37 377.00 L 266.70 377.00 C 265.21 376.44 263.65 376.09 262.07 376.07 C 248.87 375.92 236.15 370.88 225.16 363.82 C 207.88 352.54 195.58 334.05 191.57 313.84 C 190.28 306.64 189.90 299.30 190.06 291.99 C 189.95 238.70 190.18 185.41 189.94 132.13 C 184.98 136.06 180.87 140.91 176.31 145.28 C 172.18 149.19 168.64 154.19 163.06 156.13 C 156.27 158.45 148.46 155.04 144.94 148.95 C 142.70 144.76 142.49 139.59 144.23 135.18 C 145.64 131.85 148.48 129.49 150.92 126.95 C 165.71 112.27 180.31 97.38 195.17 82.77 C 201.10 76.94 211.68 77.83 217.07 83.95 C 232.55 99.63 248.34 115.01 263.74 130.77 C 268.12 135.10 268.94 142.06 266.74 147.64 C 263.83 154.04 256.37 158.10 249.43 156.50 C 242.51 155.14 238.63 148.68 233.73 144.26 C 229.40 140.34 225.78 135.54 220.93 132.26 C 220.86 187.18 220.87 242.10 220.88 297.02 C 220.75 303.17 221.85 309.31 223.88 315.12 C 228.78 328.11 239.71 338.60 252.77 343.23 C 260.84 346.13 269.67 346.25 278.05 344.85 C 293.97 341.51 307.63 329.31 312.93 313.96 C 315.13 307.91 315.58 301.39 315.67 295.00 C 315.78 223.02 315.50 151.04 315.72 79.05 C 315.35 58.47 323.72 37.92 338.35 23.44 Z" />
</g>
</svg>
